<?xml version="1.0" standalone="no"?>
<!DOCTYPE svg PUBLIC "-//W3C//DTD SVG 20010904//EN"
 "http://www.w3.org/TR/2001/REC-SVG-20010904/DTD/svg10.dtd">
<svg version="1.0" xmlns="http://www.w3.org/2000/svg"
 width="160.000000pt" height="160.000000pt" viewBox="0 0 160.000000 160.000000"
 preserveAspectRatio="xMidYMid meet">
<metadata>
Created by potrace 1.11, written by Peter Selinger 2001-2013
</metadata>
<g transform="translate(0.000000,160.000000) scale(0.100000,-0.100000)"
fill="#000000" stroke="none">
<path d="M705 1581 c-53 -26 -77 -48 -109 -99 -31 -50 -40 -128 -21 -185 12
-34 11 -38 -6 -48 -25 -13 -25 -55 1 -69 20 -10 20 -21 20 -488 0 -466 0 -477
-20 -490 -39 -24 -25 -54 47 -99 36 -24 81 -46 99 -49 20 -4 36 -14 39 -25 4
-10 18 -22 32 -25 21 -6 31 -2 47 18 12 14 44 33 73 42 28 9 63 29 77 43 14
14 26 23 26 19 0 -4 9 -2 20 4 26 14 26 54 -2 72 l-21 14 0 472 0 473 21 15
c29 20 29 64 2 71 -18 5 -19 10 -13 42 36 169 -52 297 -212 308 -46 3 -69 -1
-100 -16z m196 -26 c34 -18 78 -70 96 -114 22 -51 10 -160 -19 -181 -4 -3 -87
-5 -184 -5 -212 1 -203 -5 -209 115 -4 85 61 172 152 204 41 14 117 5 164 -19z
m117 -323 c6 -1 12 -11 12 -22 0 -19 -7 -20 -224 -20 -223 0 -245 3 -233 34 4
9 54 12 218 11 118 -1 220 -2 227 -3z m-37 -109 c0 -10 1 -45 2 -78 l2 -60
-110 -48 c-60 -26 -140 -61 -176 -77 -36 -17 -70 -30 -76 -30 -10 0 -12 144
-3 153 6 5 140 67 145 67 2 0 36 15 77 33 40 18 84 38 98 44 35 16 40 15 41
-4z m4 -435 l0 -53 -85 -41 c-47 -23 -87 -41 -90 -41 -3 1 -27 -10 -55 -22
-56 -27 -135 -61 -139 -61 -5 0 0 139 5 143 2 2 65 29 139 61 74 32 153 66
175 76 47 21 50 18 50 -62z m-4 -295 c5 -72 3 -105 -6 -112 -5 -4 -37 -19 -70
-32 -52 -21 -75 -25 -175 -24 -94 1 -115 4 -115 15 0 10 64 43 175 92 96 42
178 77 183 78 4 0 8 -8 8 -17z m44 -228 c0 -19 -7 -20 -223 -21 -123 0 -226 4
-228 8 -3 5 -3 16 0 24 5 12 40 14 228 12 215 -3 223 -4 223 -23z m-55 -45 c0
-11 -58 -37 -106 -48 -76 -17 -203 6 -233 42 -9 11 20 13 164 14 96 0 175 -3
175 -8z m-147 -86 c-6 -17 -44 -15 -51 4 -2 8 7 12 27 12 23 0 29 -4 24 -16z"/>
<path d="M745 1543 c-74 -38 -117 -108 -117 -185 0 -61 6 -67 35 -40 13 12 30
22 39 22 13 0 16 12 15 65 -1 58 3 70 32 110 18 25 31 45 29 45 -2 -1 -16 -8
-33 -17z"/>
</g>
</svg>
